# xmcd CD database file
# Copyright (C) 1996 Ti Kan
#
# Track frame offsets:
#	175
#	21634
#	44465
#	66442
#	82755
#	99954
#	110049
#	128109
#	149089
#	165191
#	186574
#	208412
#	225298
#	245355
#	265295
# Disc length: 3735 seconds
#
# Revision: 1
# Processed by: cddbd v1.4PL0 Copyright (c) Steve Scherf et al.
# Submitted via: CDCOPY 4.744
#
DISCID=da0e950f
DTITLE=Carl Philipp Emanuel Bach - Orgelwerke Vol. 1
DYEAR=1900
DGENRE=
TTITLE0=Sonate g-moll 1 Allegro moderato
TTITLE1=Sonate g-moll 2 Adagio
TTITLE2=Sonate g-moll 3 Allegro
TTITLE3=Sonate B-dur 1 Allegro
TTITLE4=Sonate B-dur 2 Arioso
TTITLE5=Sonate B-dur 3 Allegro
TTITLE6=Sonate D-dur 1 Allegro di molto
TTITLE7=Sonate D-dur 2 Adagio è mesto
TTITLE8=Sonate D-dur 3 Allegro
TTITLE9=Sonate F-dur 1 Allegro
TTITLE10=Sonate F-dur 2 Largo
TTITLE11=Sonate F-dur 3 Allegretto
TTITLE12=Sonate a-moll 1 Allegro assai
TTITLE13=Sonate a-moll 2 Adagio
TTITLE14=Sonate a-moll 3 Allegro
EXTD=
EXTT0=
EXTT1=
EXTT2=
EXTT3=
EXTT4=
EXTT5=
EXTT6=
EXTT7=
EXTT8=
EXTT9=
EXTT10=
EXTT11=
EXTT12=
EXTT13=
EXTT14=
PLAYORDER=
